<mxfile host="app.diagrams.net" agent="Mozilla/5.0 (Macintosh; Intel Mac OS X 10_15_7) AppleWebKit/537.36 (KHTML, like Gecko) Chrome/127.0.0.0 Safari/537.36" version="24.7.7">
  <diagram name="Page-1" id="QEH8KkXoadPyZ6bkNyU1">
    <mxGraphModel dx="954" dy="606" grid="1" gridSize="10" guides="1" tooltips="1" connect="1" arrows="1" fold="1" page="1" pageScale="1" pageWidth="827" pageHeight="1169" math="0" shadow="0">
      <root>
        <mxCell id="0" />
        <mxCell id="1" parent="0" />
        <mxCell id="PXlc1lo3_3rJiNvIe8UO-3" value="" style="edgeStyle=orthogonalEdgeStyle;rounded=0;orthogonalLoop=1;jettySize=auto;html=1;" edge="1" parent="1" source="PXlc1lo3_3rJiNvIe8UO-1" target="PXlc1lo3_3rJiNvIe8UO-2">
          <mxGeometry relative="1" as="geometry" />
        </mxCell>
        <mxCell id="PXlc1lo3_3rJiNvIe8UO-1" value="WK 38 code release" style="rounded=1;whiteSpace=wrap;html=1;" vertex="1" parent="1">
          <mxGeometry x="80" y="150" width="120" height="60" as="geometry" />
        </mxCell>
        <mxCell id="PXlc1lo3_3rJiNvIe8UO-17" style="edgeStyle=orthogonalEdgeStyle;rounded=0;orthogonalLoop=1;jettySize=auto;html=1;" edge="1" parent="1" source="PXlc1lo3_3rJiNvIe8UO-2" target="PXlc1lo3_3rJiNvIe8UO-8">
          <mxGeometry relative="1" as="geometry" />
        </mxCell>
        <mxCell id="PXlc1lo3_3rJiNvIe8UO-2" value="Branch off on WK 32.1 On MC 4 at 10:00 AM &amp;amp; CDT is merged from MC7" style="whiteSpace=wrap;html=1;rounded=1;" vertex="1" parent="1">
          <mxGeometry x="280" y="150" width="120" height="60" as="geometry" />
        </mxCell>
        <mxCell id="PXlc1lo3_3rJiNvIe8UO-19" style="edgeStyle=orthogonalEdgeStyle;rounded=0;orthogonalLoop=1;jettySize=auto;html=1;entryX=0.5;entryY=0;entryDx=0;entryDy=0;" edge="1" parent="1" source="PXlc1lo3_3rJiNvIe8UO-6" target="PXlc1lo3_3rJiNvIe8UO-12">
          <mxGeometry relative="1" as="geometry" />
        </mxCell>
        <mxCell id="PXlc1lo3_3rJiNvIe8UO-6" value="Sonar Qube test is conducted to validate for any kind of defects are issues" style="whiteSpace=wrap;html=1;rounded=1;" vertex="1" parent="1">
          <mxGeometry x="680" y="260" width="120" height="60" as="geometry" />
        </mxCell>
        <mxCell id="PXlc1lo3_3rJiNvIe8UO-18" style="edgeStyle=orthogonalEdgeStyle;rounded=0;orthogonalLoop=1;jettySize=auto;html=1;entryX=0.5;entryY=0;entryDx=0;entryDy=0;" edge="1" parent="1" source="PXlc1lo3_3rJiNvIe8UO-8" target="PXlc1lo3_3rJiNvIe8UO-6">
          <mxGeometry relative="1" as="geometry" />
        </mxCell>
        <mxCell id="PXlc1lo3_3rJiNvIe8UO-8" value="First version of code is deployed on CTEF2-EU" style="whiteSpace=wrap;html=1;rounded=1;" vertex="1" parent="1">
          <mxGeometry x="680" y="150" width="120" height="60" as="geometry" />
        </mxCell>
        <mxCell id="PXlc1lo3_3rJiNvIe8UO-20" style="edgeStyle=orthogonalEdgeStyle;rounded=0;orthogonalLoop=1;jettySize=auto;html=1;entryX=0.5;entryY=1;entryDx=0;entryDy=0;" edge="1" parent="1" source="PXlc1lo3_3rJiNvIe8UO-12" target="PXlc1lo3_3rJiNvIe8UO-14">
          <mxGeometry relative="1" as="geometry" />
        </mxCell>
        <mxCell id="PXlc1lo3_3rJiNvIe8UO-23" value="" style="edgeStyle=orthogonalEdgeStyle;rounded=0;orthogonalLoop=1;jettySize=auto;html=1;" edge="1" parent="1" source="PXlc1lo3_3rJiNvIe8UO-12" target="PXlc1lo3_3rJiNvIe8UO-22">
          <mxGeometry relative="1" as="geometry" />
        </mxCell>
        <mxCell id="PXlc1lo3_3rJiNvIe8UO-12" value="if Any defects or bugs" style="rhombus;whiteSpace=wrap;html=1;rounded=1;" vertex="1" parent="1">
          <mxGeometry x="700" y="370" width="80" height="80" as="geometry" />
        </mxCell>
        <mxCell id="PXlc1lo3_3rJiNvIe8UO-40" value="" style="edgeStyle=orthogonalEdgeStyle;rounded=0;orthogonalLoop=1;jettySize=auto;html=1;" edge="1" parent="1" source="PXlc1lo3_3rJiNvIe8UO-14" target="PXlc1lo3_3rJiNvIe8UO-39">
          <mxGeometry relative="1" as="geometry" />
        </mxCell>
        <mxCell id="PXlc1lo3_3rJiNvIe8UO-14" value="Developer fixex the defect and runs the test again" style="whiteSpace=wrap;html=1;rounded=1;" vertex="1" parent="1">
          <mxGeometry x="370" y="290" width="120" height="60" as="geometry" />
        </mxCell>
        <mxCell id="PXlc1lo3_3rJiNvIe8UO-21" value="Yes issue" style="text;html=1;align=center;verticalAlign=middle;whiteSpace=wrap;rounded=0;" vertex="1" parent="1">
          <mxGeometry x="560" y="380" width="60" height="30" as="geometry" />
        </mxCell>
        <mxCell id="PXlc1lo3_3rJiNvIe8UO-26" style="edgeStyle=orthogonalEdgeStyle;rounded=0;orthogonalLoop=1;jettySize=auto;html=1;entryX=1;entryY=0.5;entryDx=0;entryDy=0;" edge="1" parent="1" source="PXlc1lo3_3rJiNvIe8UO-22" target="PXlc1lo3_3rJiNvIe8UO-25">
          <mxGeometry relative="1" as="geometry" />
        </mxCell>
        <mxCell id="PXlc1lo3_3rJiNvIe8UO-22" value="Deploy in 4 wall PPE or iPPE1" style="whiteSpace=wrap;html=1;rounded=1;" vertex="1" parent="1">
          <mxGeometry x="680" y="540" width="120" height="60" as="geometry" />
        </mxCell>
        <mxCell id="PXlc1lo3_3rJiNvIe8UO-24" value="No" style="text;html=1;align=center;verticalAlign=middle;whiteSpace=wrap;rounded=0;" vertex="1" parent="1">
          <mxGeometry x="690" y="470" width="60" height="30" as="geometry" />
        </mxCell>
        <mxCell id="PXlc1lo3_3rJiNvIe8UO-27" style="edgeStyle=orthogonalEdgeStyle;rounded=0;orthogonalLoop=1;jettySize=auto;html=1;entryX=0;entryY=0.5;entryDx=0;entryDy=0;" edge="1" parent="1" source="PXlc1lo3_3rJiNvIe8UO-25" target="PXlc1lo3_3rJiNvIe8UO-14">
          <mxGeometry relative="1" as="geometry" />
        </mxCell>
        <mxCell id="PXlc1lo3_3rJiNvIe8UO-31" value="" style="edgeStyle=orthogonalEdgeStyle;rounded=0;orthogonalLoop=1;jettySize=auto;html=1;" edge="1" parent="1" source="PXlc1lo3_3rJiNvIe8UO-25" target="PXlc1lo3_3rJiNvIe8UO-30">
          <mxGeometry relative="1" as="geometry" />
        </mxCell>
        <mxCell id="PXlc1lo3_3rJiNvIe8UO-25" value="if Any defects or bugs" style="rhombus;whiteSpace=wrap;html=1;rounded=1;" vertex="1" parent="1">
          <mxGeometry x="520" y="530" width="80" height="80" as="geometry" />
        </mxCell>
        <mxCell id="PXlc1lo3_3rJiNvIe8UO-28" value="Yes issue" style="text;html=1;align=center;verticalAlign=middle;whiteSpace=wrap;rounded=0;" vertex="1" parent="1">
          <mxGeometry x="414" y="530" width="60" height="30" as="geometry" />
        </mxCell>
        <mxCell id="PXlc1lo3_3rJiNvIe8UO-29" value="No" style="text;html=1;align=center;verticalAlign=middle;whiteSpace=wrap;rounded=0;" vertex="1" parent="1">
          <mxGeometry x="500" y="620" width="60" height="30" as="geometry" />
        </mxCell>
        <mxCell id="PXlc1lo3_3rJiNvIe8UO-34" value="" style="edgeStyle=orthogonalEdgeStyle;rounded=0;orthogonalLoop=1;jettySize=auto;html=1;" edge="1" parent="1" source="PXlc1lo3_3rJiNvIe8UO-30" target="PXlc1lo3_3rJiNvIe8UO-33">
          <mxGeometry relative="1" as="geometry" />
        </mxCell>
        <mxCell id="PXlc1lo3_3rJiNvIe8UO-30" value="Plan for production conduct SQS" style="whiteSpace=wrap;html=1;rounded=1;" vertex="1" parent="1">
          <mxGeometry x="500" y="700" width="120" height="60" as="geometry" />
        </mxCell>
        <mxCell id="PXlc1lo3_3rJiNvIe8UO-33" value="Based on functional and non-functional result approval is given." style="whiteSpace=wrap;html=1;rounded=1;" vertex="1" parent="1">
          <mxGeometry x="700" y="700" width="120" height="60" as="geometry" />
        </mxCell>
        <mxCell id="PXlc1lo3_3rJiNvIe8UO-38" value="Code is deployed again in CTEF2-EU" style="text;html=1;align=center;verticalAlign=middle;whiteSpace=wrap;rounded=0;" vertex="1" parent="1">
          <mxGeometry x="440" y="230" width="120" height="30" as="geometry" />
        </mxCell>
        <mxCell id="PXlc1lo3_3rJiNvIe8UO-41" style="edgeStyle=orthogonalEdgeStyle;rounded=0;orthogonalLoop=1;jettySize=auto;html=1;" edge="1" parent="1" source="PXlc1lo3_3rJiNvIe8UO-39">
          <mxGeometry relative="1" as="geometry">
            <mxPoint x="580" y="180" as="targetPoint" />
          </mxGeometry>
        </mxCell>
        <mxCell id="PXlc1lo3_3rJiNvIe8UO-44" style="edgeStyle=orthogonalEdgeStyle;rounded=0;orthogonalLoop=1;jettySize=auto;html=1;entryX=0.75;entryY=1;entryDx=0;entryDy=0;" edge="1" parent="1" source="PXlc1lo3_3rJiNvIe8UO-39" target="PXlc1lo3_3rJiNvIe8UO-14">
          <mxGeometry relative="1" as="geometry">
            <Array as="points">
              <mxPoint x="580" y="370" />
              <mxPoint x="460" y="370" />
            </Array>
          </mxGeometry>
        </mxCell>
        <mxCell id="PXlc1lo3_3rJiNvIe8UO-46" style="edgeStyle=orthogonalEdgeStyle;rounded=0;orthogonalLoop=1;jettySize=auto;html=1;exitX=1;exitY=0.5;exitDx=0;exitDy=0;" edge="1" parent="1" source="PXlc1lo3_3rJiNvIe8UO-39">
          <mxGeometry relative="1" as="geometry">
            <mxPoint x="160" y="340" as="targetPoint" />
            <Array as="points">
              <mxPoint x="650" y="310" />
              <mxPoint x="650" y="260" />
              <mxPoint x="330" y="260" />
              <mxPoint x="330" y="340" />
            </Array>
          </mxGeometry>
        </mxCell>
        <mxCell id="PXlc1lo3_3rJiNvIe8UO-39" value="Defect Fixed ?" style="rhombus;whiteSpace=wrap;html=1;rounded=1;" vertex="1" parent="1">
          <mxGeometry x="540" y="270" width="80" height="80" as="geometry" />
        </mxCell>
        <mxCell id="PXlc1lo3_3rJiNvIe8UO-43" value="Yes" style="text;html=1;align=center;verticalAlign=middle;whiteSpace=wrap;rounded=0;" vertex="1" parent="1">
          <mxGeometry x="570" y="210" width="60" height="30" as="geometry" />
        </mxCell>
        <mxCell id="PXlc1lo3_3rJiNvIe8UO-45" value="No" style="text;html=1;align=center;verticalAlign=middle;whiteSpace=wrap;rounded=0;" vertex="1" parent="1">
          <mxGeometry x="580" y="340" width="60" height="30" as="geometry" />
        </mxCell>
        <mxCell id="PXlc1lo3_3rJiNvIe8UO-47" value="Descope" style="text;html=1;align=center;verticalAlign=middle;whiteSpace=wrap;rounded=0;" vertex="1" parent="1">
          <mxGeometry x="610" y="270" width="60" height="30" as="geometry" />
        </mxCell>
        <mxCell id="PXlc1lo3_3rJiNvIe8UO-48" value="If the issue is not fixed then the feature is descoped and carried out in next release" style="rounded=1;whiteSpace=wrap;html=1;" vertex="1" parent="1">
          <mxGeometry x="40" y="310" width="120" height="60" as="geometry" />
        </mxCell>
        <mxCell id="PXlc1lo3_3rJiNvIe8UO-49" value="Branch off is done on 3 weeks old code that is stable in production" style="text;html=1;align=center;verticalAlign=middle;whiteSpace=wrap;rounded=0;" vertex="1" parent="1">
          <mxGeometry x="240" y="110" width="200" height="30" as="geometry" />
        </mxCell>
      </root>
    </mxGraphModel>
  </diagram>
</mxfile>
